# xmcd CD database file
#
# Track frame offsets:
#	150
#	17027
#	42447
#	63061
#	82103
#	99497
#	118188
#	128518
#	145323
#	164792
#	183375
#	198365
#	212500
#	229454
#	248112
#	263139
#	277399
#	297037
#	309302
#	328785
#
# Disc length: 4638 seconds
#
# Revision: 0
# Processed by: cddbd v1.5.1PL0 Copyright (c) Steve Scherf et al.
# Submitted via: CDex 1.51
#
DISCID=30121c14
DTITLE=Cleiton e Camargo - Edição Especial
DYEAR=2004
DGENRE=Sertanejo
TTITLE0=Você, o Amor e Eu
TTITLE1=O Meu Anjo Azul
TTITLE2=Quando Um Grande Amor se Faz
TTITLE3=Agenda Rabiscada
TTITLE4=Amor no Carro
TTITLE5=Na Hora de Amar
TTITLE6=Sempre Seu Homem
TTITLE7=Hoje eu Vou Tomar Todas
TTITLE8=Olha Pra Mim
TTITLE9=Vê Se Volta Pra Mim
TTITLE10=Carga Pesada
TTITLE11=Acabadinho
TTITLE12=Amor Por Correspondência
TTITLE13=Acabou
TTITLE14=Quando Chora
TTITLE15=Rodeio de Fogo
TTITLE16=Se é Amor Não Sei
TTITLE17=Aonde Tem Rodeio
TTITLE18=Ilusão
TTITLE19=Sem Você Aqui
EXTD=YEAR: 2004
EXTT0=
EXTT1=
EXTT2=
EXTT3=
EXTT4=
EXTT5=
EXTT6=
EXTT7=
EXTT8=
EXTT9=
EXTT10=
EXTT11=
EXTT12=
EXTT13=
EXTT14=
EXTT15=
EXTT16=
EXTT17=
EXTT18=
EXTT19=
PLAYORDER=
